<mxfile host="app.diagrams.net" modified="2024-04-26T10:30:31.914Z" agent="Mozilla/5.0 (Windows NT 10.0; Win64; x64; rv:125.0) Gecko/20100101 Firefox/125.0" version="24.3.0" etag="jsOH8oFb6zs5391y9wfm" type="github">
  <diagram name="Page-1" id="IXm8FqIY99ZUZyLnxGtm">
    <mxGraphModel>
      <root>
        <mxCell id="0" />
        <mxCell id="1" parent="0" />
      </root>
    </mxGraphModel>
  </diagram>
</mxfile>
